HIERARCHY
ROOT Hips
{
	OFFSET -0.001795 -0.223333 0.028219
	CHANNELS 6 Xposition Yposition Zposition Zrotation Yrotation Xrotation 
	JOINT LeftUpLeg
	{
		OFFSET 0.069520 -0.091406 -0.006815
		CHANNELS 3 Zrotation Yrotation Xrotation
		JOINT LeftLeg
		{
			OFFSET 0.034277 -0.375199 -0.004496
			CHANNELS 3 Zrotation Yrotation Xrotation
			JOINT LeftFoot
			{
				OFFSET -0.013596 -0.397961 -0.043693
				CHANNELS 3 Zrotation Yrotation Xrotation
				JOINT LeftToe
				{
					OFFSET 0.026358 -0.055791 0.119288
					CHANNELS 3 Zrotation Yrotation Xrotation
					End Site
					{
						OFFSET 0.000000 0.000000 0.000000
					}
				}
			}
		}
	}
	JOINT RightUpLeg
	{
		OFFSET -0.067670 -0.090522 -0.004320
		CHANNELS 3 Zrotation Yrotation Xrotation
		JOINT RightLeg
		{
			OFFSET -0.038290 -0.382569 -0.008850
			CHANNELS 3 Zrotation Yrotation Xrotation
			JOINT RightFoot
			{
				OFFSET 0.015774 -0.398415 -0.042312
				CHANNELS 3 Zrotation Yrotation Xrotation
				JOINT RightToe
				{
					OFFSET -0.025372 -0.048144 0.123348
					CHANNELS 3 Zrotation Yrotation Xrotation
					End Site
					{
						OFFSET 0.000000 0.000000 0.000000
					}
				}
			}
		}
	}
	JOINT Spine
	{
		OFFSET -0.002533 0.108963 -0.026696
		CHANNELS 3 Zrotation Yrotation Xrotation
		JOINT Spine1
		{
			OFFSET 0.005487 0.135180 0.001092
			CHANNELS 3 Zrotation Yrotation Xrotation
			JOINT Spine2
			{
				OFFSET 0.001457 0.052922 0.025425
				CHANNELS 3 Zrotation Yrotation Xrotation
				JOINT Neck
				{
					OFFSET -0.002778 0.213870 -0.042857
					CHANNELS 3 Zrotation Yrotation Xrotation
					JOINT Head
					{
						OFFSET 0.005152 0.064970 0.051349
						CHANNELS 3 Zrotation Yrotation Xrotation
						End Site
						{
							OFFSET 0.000000 0.000000 0.000000
						}
					}
				}
				JOINT LeftShoulder
				{
					OFFSET 0.078845 0.121749 -0.034090
					CHANNELS 3 Zrotation Yrotation Xrotation
					JOINT LeftArm
					{
						OFFSET 0.090977 0.030469 -0.008868
						CHANNELS 3 Zrotation Yrotation Xrotation
						JOINT LeftForeArm
						{
							OFFSET 0.259612 -0.012772 -0.027456
							CHANNELS 3 Zrotation Yrotation Xrotation
							JOINT LeftHand
							{
								OFFSET 0.249234 0.008986 -0.001171
								CHANNELS 3 Zrotation Yrotation Xrotation
								End Site
								{
									OFFSET 0.000000 0.000000 0.000000
								}
							}
						}
					}
				}
				JOINT RightShoulder
				{
					OFFSET -0.081759 0.118833 -0.038615
					CHANNELS 3 Zrotation Yrotation Xrotation
					JOINT RightArm
					{
						OFFSET -0.096012 0.032551 -0.009143
						CHANNELS 3 Zrotation Yrotation Xrotation
						JOINT RightForeArm
						{
							OFFSET -0.253742 -0.013329 -0.021401
							CHANNELS 3 Zrotation Yrotation Xrotation
							JOINT RightHand
							{
								OFFSET -0.255298 0.007772 -0.005559
								CHANNELS 3 Zrotation Yrotation Xrotation
								End Site
								{
									OFFSET 0.000000 0.000000 0.000000
								}
							}
						}
					}
				}
			}
		}
	}
}
MOTION
Frames: 12
Frame Time: 0.050000
0.000000 0.952917 0.000000 -1.197232 -0.509579 1.868123 2.932166 -0.044564 0.041487 1.267005 0.007028 -3.235101 -1.313365 0.930135 8.121738 0.000000 0.000000 0.000000 -1.041144 0.088893 -0.647061 -1.279454 0.089602 -0.864417 0.631312 -1.888052 7.046066 0.000000 0.000000 0.000000 1.690906 -0.005731 -0.351118 -1.093312 0.556650 -2.444617 -0.080667 1.214407 5.596839 1.705452 -0.103330 -12.688358 0.000000 0.000000 0.000000 -19.132137 -1.348268 -1.335773 -51.492875 -6.291437 -3.519054 -13.164115 -20.954145 3.181988 0.000000 0.000000 0.000000 17.789633 0.348392 -1.219150 56.401660 6.210330 -2.701691 7.955356 18.944260 1.834256 0.000000 0.000000 0.000000 
0.000202 0.951706 0.001405 -1.324527 -1.213412 2.136782 2.656560 -0.008083 0.486126 1.823691 0.000914 -4.049648 -1.051937 1.135469 7.615432 0.000000 0.000000 0.000000 -1.482593 0.118775 -0.843317 -0.787343 0.051501 -0.632180 0.924615 -0.864974 6.058668 0.000000 0.000000 0.000000 1.715447 0.017447 -0.795654 -1.813094 0.873636 -1.975955 0.609978 1.123672 4.865475 0.952644 0.367579 -13.102590 0.000000 0.000000 0.000000 -19.683241 -0.718603 -1.601747 -51.292023 -6.193347 -3.504156 -13.717414 -20.991598 3.309787 0.000000 0.000000 0.000000 17.172875 0.366934 -1.320696 57.136657 5.512084 -2.962865 8.924683 20.015455 2.077677 0.000000 0.000000 0.000000 
0.000300 0.951131 0.002384 -1.175256 -0.806720 2.209666 2.345104 -0.013573 0.355934 2.182557 -0.066819 -3.258256 -1.029347 0.687131 6.313804 0.000000 0.000000 0.000000 -1.598567 0.122192 -0.857376 -0.848173 0.060487 -0.580963 0.159137 -2.305405 5.564249 0.000000 0.000000 0.000000 1.498709 0.006857 -0.575376 -1.282634 0.652372 -3.586909 0.022392 0.774715 5.603106 0.557991 0.593675 -12.839944 0.000000 0.000000 0.000000 -19.348885 -0.723337 -1.532865 -51.482940 -5.824965 -3.745523 -13.901051 -20.309512 3.240011 0.000000 0.000000 0.000000 18.511974 1.019061 -1.079399 55.994189 5.089454 -3.183779 8.329831 20.154768 2.002628 0.000000 0.000000 0.000000 
0.000220 0.950526 0.003329 -1.399379 -0.962351 2.203777 2.513794 -0.001893 0.561284 2.231328 -0.056937 -3.525354 -1.160090 0.410138 6.263259 0.000000 0.000000 0.000000 -1.756488 0.130219 -0.904126 -0.347431 0.024896 -0.256765 0.072908 -2.357005 5.217586 0.000000 0.000000 0.000000 1.233188 0.019394 -0.758181 -1.569197 0.771491 -2.924956 0.897314 -0.111312 4.608369 -0.089157 0.850629 -11.887968 0.000000 0.000000 0.000000 -19.308859 0.390658 -1.876581 -51.954900 -5.745757 -3.768235 -13.914395 -19.806559 3.197275 0.000000 0.000000 0.000000 17.929643 1.588607 -1.037100 56.020780 4.825455 -3.168631 8.997445 20.517475 2.096580 0.000000 0.000000 0.000000 
0.000100 0.950433 0.004126 -1.400516 -0.724415 1.956358 2.388324 0.013073 0.729757 2.435807 -0.085858 -3.283014 -0.936360 0.807136 6.161599 0.000000 0.000000 0.000000 -1.748372 0.103544 -0.612160 -0.461094 0.035079 -0.293576 -0.301214 -3.183202 5.230375 0.000000 0.000000 0.000000 1.122675 0.016846 -0.669224 -1.465785 0.728551 -2.992607 0.771483 -0.259505 4.570140 -0.404123 1.048395 -11.745757 0.000000 0.000000 0.000000 -19.195948 0.292765 -1.815524 -51.876293 -5.732879 -3.766867 -14.318542 -19.144262 3.151931 0.000000 0.000000 0.000000 17.793982 1.190868 -1.232097 56.340895 4.871266 -3.167446 9.422429 20.763494 2.194866 0.000000 0.000000 0.000000 
-0.000005 0.950430 0.004761 -1.410338 -0.601664 2.043072 2.444763 0.015998 0.806391 2.417194 -0.073472 -3.469464 -0.848764 1.016402 6.249749 0.000000 0.000000 0.000000 -1.744663 0.109100 -0.677699 -0.537038 0.046627 -0.209671 -0.215564 -3.042168 5.372670 0.000000 0.000000 0.000000 0.889975 0.023027 -0.756857 -1.375646 0.691479 -3.192665 0.974789 -0.625497 4.597640 -0.563764 1.112300 -11.544401 0.000000 0.000000 0.000000 -19.439355 0.858524 -2.059771 -51.913145 -5.654482 -3.821451 -14.037544 -18.813136 3.062033 0.000000 0.000000 0.000000 17.551247 1.522135 -1.115491 56.578520 4.932689 -3.147570 9.364198 20.866802 2.183683 0.000000 0.000000 0.000000 
-0.000039 0.950587 0.005136 -1.389687 -0.514072 1.988708 2.437890 0.016907 0.818230 2.492779 -0.071786 -3.600880 -0.877777 1.146899 6.686621 0.000000 0.000000 0.000000 -1.723392 0.094656 -0.519006 -0.712022 0.061554 -0.277142 -0.156689 -2.934447 5.444753 0.000000 0.000000 0.000000 0.753948 0.021281 -0.691867 -1.386254 0.698001 -3.273201 0.893665 -0.815373 4.610893 -0.369246 0.995899 -11.932737 0.000000 0.000000 0.000000 -19.229085 1.146176 -2.163351 -51.959262 -5.454420 -3.914057 -14.236851 -18.904787 3.116649 0.000000 0.000000 0.000000 17.417386 1.499221 -1.143078 56.848576 4.846640 -3.204543 9.306422 21.301801 2.219915 0.000000 0.000000 0.000000 
0.000019 0.950829 0.005386 -1.354241 -0.555646 2.042842 2.398817 0.016162 0.796644 2.613174 -0.071544 -3.771044 -0.819432 1.287015 6.775970 0.000000 0.000000 0.000000 -1.707897 0.098703 -0.566663 -0.820324 0.074132 -0.242339 -0.270138 -3.109792 5.250039 0.000000 0.000000 0.000000 0.622892 0.021610 -0.674995 -1.360021 0.686342 -3.314485 0.845955 -0.659661 4.455478 -0.151594 0.837725 -11.446468 0.000000 0.000000 0.000000 -19.007753 1.286859 -2.256645 -51.924386 -5.305123 -3.951023 -14.448191 -19.101796 3.179819 0.000000 0.000000 0.000000 17.249128 1.333923 -1.181760 57.111771 4.876869 -3.194269 9.466400 21.403640 2.263969 0.000000 0.000000 0.000000 
0.000132 0.950921 0.005619 -1.383079 -0.493607 2.096368 2.439793 0.013754 0.785751 2.687722 -0.069240 -3.903869 -0.755606 1.451647 6.881262 0.000000 0.000000 0.000000 -1.721573 0.098746 -0.562232 -0.791533 0.066842 -0.337187 -0.348656 -3.296441 5.289162 0.000000 0.000000 0.000000 0.586077 0.025500 -0.753908 -1.350191 0.684318 -3.472438 0.884713 -0.703319 4.611616 -0.107984 0.799693 -11.332631 0.000000 0.000000 0.000000 -18.725245 1.698103 -2.438291 -52.089708 -5.522814 -3.880983 -14.658011 -19.116366 3.221266 0.000000 0.000000 0.000000 17.173429 1.331617 -1.174701 56.846407 5.034675 -3.119744 9.510068 21.517535 2.285678 0.000000 0.000000 0.000000 
0.000271 0.950911 0.005906 -1.422053 -0.586115 2.245056 2.330460 0.020218 0.847487 2.648390 -0.047778 -4.229375 -0.600903 1.755447 6.950628 0.000000 0.000000 0.000000 -1.758938 0.111993 -0.696812 -0.794559 0.064740 -0.384918 -0.394547 -3.425245 5.338510 0.000000 0.000000 0.000000 0.626008 0.034784 -0.967230 -1.434523 0.720805 -3.528912 0.919255 -0.470528 4.627389 -0.196247 0.850024 -10.959034 0.000000 0.000000 0.000000 -18.338233 1.784358 -2.482214 -52.240554 -5.632168 -3.834170 -14.881399 -19.192263 3.266443 0.000000 0.000000 0.000000 16.925847 1.270010 -1.140139 56.791573 5.011960 -3.131954 9.821442 21.691692 2.368316 0.000000 0.000000 0.000000 
0.000442 0.950769 0.006248 -1.376084 -0.710801 2.230685 2.415375 0.031644 1.028759 2.510899 -0.024995 -4.465578 -0.559724 1.852283 7.033355 0.000000 0.000000 0.000000 -1.867490 0.112336 -0.665965 -0.780034 0.060748 -0.434965 -0.405981 -3.501130 5.441485 0.000000 0.000000 0.000000 0.620179 0.030552 -0.874028 -1.490385 0.745081 -3.630492 0.997402 -0.373571 4.616985 -0.227998 0.862453 -10.794731 0.000000 0.000000 0.000000 -18.483661 2.007420 -2.620601 -51.906233 -5.616816 -3.816980 -15.080192 -19.321028 3.323021 0.000000 0.000000 0.000000 16.928075 1.031866 -1.260188 56.541468 5.104758 -3.073965 10.231525 21.919667 2.468410 0.000000 0.000000 0.000000 
0.000661 0.950538 0.006598 -1.413705 -1.008479 2.294164 2.536558 0.029767 1.028678 2.414759 -0.018703 -4.474672 -0.392773 2.119813 6.995068 0.000000 0.000000 0.000000 -1.910903 0.128129 -0.828393 -0.684593 0.060516 -0.221475 -0.455629 -3.596663 5.355069 0.000000 0.000000 0.000000 0.715375 0.029632 -0.873100 -1.546826 0.764623 -3.426121 1.176225 -0.376518 4.282394 -0.220268 0.829629 -10.563295 0.000000 0.000000 0.000000 -18.615125 2.290380 -2.751430 -51.680676 -5.447052 -3.848656 -15.340053 -19.385203 3.383961 0.000000 0.000000 0.000000 16.793741 0.847018 -1.394072 56.317682 4.956660 -3.095317 10.617014 22.201272 2.559613 0.000000 0.000000 0.000000 
